# xmcd
#
# Track frame offsets:
# 150
# 15132
# 27669
# 41113
# 59383
# 76510
# 88382
# 105602
# 119791
# 133618
# 155364
# 169781
# 184728
# 198678
#
# Disc length: 2891 seconds
#
#
# Revision: 0
# Processed by: cddbd v1.5.1PL0 Copyright (c) Steve Scherf et al.
# Submitted via: FreeRIP 2.90 
#
DISCID=bb0b490e
DTITLE=Faith Hill - Take Me As I Am
DYEAR=1900
DGENRE=Country
TTITLE0=Take Me As I Am
TTITLE1=Wild One
TTITLE2=Just About Now
TTITLE3=Piece Of My Heart
TTITLE4=I've Got This Friend
TTITLE5=Life's Too Short To Love Like That
TTITLE6=But I Will
TTITLE7=Just Around The Eyes
TTITLE8=Go The Distance
TTITLE9=I Would Be Stronger Than That
TTITLE10=Let's Go To Vegas
TTITLE11=It Matters To Me
TTITLE12=Bed Of Roses
TTITLE13=I Can't Do That Anymore
EXTD=
EXTT0=
EXTT1=
EXTT2=
EXTT3=
EXTT4=
EXTT5=
EXTT6=
EXTT7=
EXTT8=
EXTT9=
EXTT10=
EXTT11=
EXTT12=
EXTT13=
PLAYORDER=
